<svg xmlns="http://www.w3.org/2000/svg" id="Capa_1" x="0" y="0" version="1.1" viewBox="0 0 114.358 114.358" style="enable-background:new 0 0 114.358 114.358" xml:space="preserve"><metadata id="metadata123"/><circle id="circle42" cx="37.671" cy="57.065" r="12.926" style="clip-rule:evenodd;fill:#000;fill-opacity:1;fill-rule:evenodd;stroke-width:1.11160922"/><g id="g58" transform="matrix(1.1116092,0,0,1.1116092,-5.897187,20.070678)" style="fill:#000;fill-opacity:1"><circle id="circle56" cx="74.097" cy="33.28" r="11.628" style="clip-rule:evenodd;fill:#000;fill-opacity:1;fill-rule:evenodd"/></g><g id="g2606" style="opacity:1;fill:#fff;fill-opacity:1;stroke:none" transform="matrix(1.1116092,0,0,1.1116092,-6.435837,-7.4004732)"><path id="path62" d="m 72.512,54.11013 c 0,-1.139423 0.92115,-2.067248 2.064578,-2.067248 1.14276,0 2.062575,0.927825 2.062575,2.067248 0,1.141425 -0.919815,2.067915 -2.062575,2.067915 C 73.43315,56.177377 72.512,55.251555 72.512,54.11013 Z" style="clip-rule:evenodd;fill:#fff;fill-opacity:1;fill-rule:evenodd;stroke-width:.66750008;stroke:none"/><path style="clip-rule:evenodd;fill:#fff;fill-opacity:1;fill-rule:evenodd;stroke-width:.66750008;stroke:none" id="path252" d="m 72.511616,61.184453 c 0,-1.139423 0.92115,-2.067248 2.064578,-2.067248 1.14276,0 2.062575,0.927825 2.062575,2.067248 0,1.141425 -0.919815,2.067915 -2.062575,2.067915 -1.143428,-6.68e-4 -2.064578,-0.92649 -2.064578,-2.067915 z"/><path id="path254" d="m 76.124859,57.708087 c 0,-1.139423 0.92115,-2.067248 2.064578,-2.067248 1.14276,0 2.062575,0.927825 2.062575,2.067248 0,1.141425 -0.919815,2.067915 -2.062575,2.067915 -1.143428,-6.68e-4 -2.064578,-0.92649 -2.064578,-2.067915 z" style="clip-rule:evenodd;fill:#fff;fill-opacity:1;fill-rule:evenodd;stroke-width:.66750008;stroke:none"/><path id="path256" d="m 68.9,57.707862 c 0,-1.139423 0.92115,-2.067248 2.064578,-2.067248 1.14276,0 2.062575,0.927825 2.062575,2.067248 0,1.141425 -0.919815,2.067915 -2.062575,2.067915 C 69.82115,59.775109 68.9,58.849287 68.9,57.707862 Z" style="clip-rule:evenodd;fill:#fff;fill-opacity:1;fill-rule:evenodd;stroke-width:.66750008;stroke:none"/></g><path style="clip-rule:evenodd;fill:#fff;fill-opacity:1;fill-rule:evenodd;stroke-width:1.11160922;opacity:.5" id="path74" d="m 66.689782,77.867687 c 0,4.554263 -3.691654,8.245917 -8.245917,8.245917 h -2.505567 c -4.553151,0 -8.245917,-3.691654 -8.245917,-8.245917 v 0 c 0,-4.554263 3.692766,-8.245917 8.245917,-8.245917 h 2.505567 c 4.554263,0 8.245917,3.691654 8.245917,8.245917 z"/><g id="g78" transform="matrix(1.1116092,0,0,1.1116092,-5.897187,20.070678)" style="fill:#000;fill-opacity:1;opacity:.5"><path style="clip-rule:evenodd;fill:#000;fill-opacity:1;fill-rule:evenodd" id="path76" d="m 52.119,50.934 c -0.714,-0.837 -0.397,-1.521 0.702,-1.521 h 7.657 c 1.1,0 1.416,0.685 0.702,1.522 l -3.233,3.79 c -0.714,0.837 -1.882,0.837 -2.596,0 z"/></g><g id="g1069" style="opacity:1;fill:#fff;stroke:none;stroke-width:0;stroke-miterlimit:4;stroke-dasharray:none;stroke-opacity:1;paint-order:markers stroke fill;fill-opacity:1" transform="matrix(1.1116092,0,0,1.1116092,-6.166512,-7.1311482)"><rect id="rect258" width="3.598" height="10.793" x="37.519" y="52.34" style="fill:#fff;fill-opacity:1;stroke:none;stroke-width:0;stroke-miterlimit:4;stroke-dasharray:none;stroke-opacity:1;paint-order:markers stroke fill"/><rect transform="rotate(90)" style="fill:#fff;fill-opacity:1;stroke:none;stroke-width:0;stroke-miterlimit:4;stroke-dasharray:none;stroke-opacity:1;paint-order:markers stroke fill" id="rect1065" width="3.598" height="10.793" x="55.938" y="-44.715"/></g></svg>