<svg xmlns="http://www.w3.org/2000/svg" id="Capa_1" x="0" y="0" version="1.1" viewBox="0 0 114.358 114.358" style="enable-background:new 0 0 114.358 114.358" xml:space="preserve"><metadata id="metadata123"/><circle id="circle42" cx="33.353" cy="57.886" r="15.974" style="clip-rule:evenodd;fill:#fff;fill-opacity:0;fill-rule:evenodd;stroke-width:1.37377906"/><g id="g58" transform="matrix(1.373779,0,0,1.373779,-20.490945,12.16701)" style="fill:#000;fill-opacity:0" clip-path="none"><circle id="circle56" cx="74.097" cy="33.28" r="11.628" style="clip-rule:evenodd;fill:#000;fill-opacity:0;fill-rule:evenodd"/></g><path style="clip-rule:evenodd;fill:#fff;fill-opacity:.70588237;fill-rule:evenodd;stroke-width:1.37377906" id="path74" d="m 69.215449,84.451878 c 0,5.628373 -4.56232,10.190693 -10.190692,10.190693 h -3.096498 c -5.626999,0 -10.190693,-4.56232 -10.190693,-10.190693 v 0 c 0,-5.628372 4.563694,-10.190692 10.190693,-10.190692 h 3.096498 c 5.628372,0 10.190692,4.56232 10.190692,10.190692 z"/><path id="path4599" style="clip-rule:evenodd;fill:#fff;fill-opacity:1;fill-rule:evenodd;stroke-width:1.37377906" d="m 69.215449,84.451878 c 0,5.628373 -4.56232,10.190693 -10.190692,10.190693 h -3.096498 c -5.626999,0 -10.190693,-4.56232 -10.190693,-10.190693 v 0 c 0,-5.628372 4.563694,-10.190692 10.190693,-10.190692 h 3.096498 c 5.628372,0 10.190692,4.56232 10.190692,10.190692 z M 97.27626,57.886374 A 15.974302,15.974302 0 0 1 81.301958,73.860676 15.974302,15.974302 0 0 1 65.327655,57.886374 15.974302,15.974302 0 0 1 81.301958,41.912072 15.974302,15.974302 0 0 1 97.27626,57.886374 Z m -47.949007,10e-7 A 15.974302,15.974302 0 0 1 33.352951,73.860678 15.974302,15.974302 0 0 1 17.378649,57.886375 15.974302,15.974302 0 0 1 33.352951,41.912073 15.974302,15.974302 0 0 1 49.327253,57.886375 Z M 22.459705,5.7407494 h 70.515636 c 8.551299,0 15.435559,6.8842596 15.435559,15.4355606 v 71.749912 c 0,8.551298 -6.88426,15.435558 -15.435559,15.435558 H 22.459705 c -8.5513,0 -15.4355604,-6.88426 -15.4355604,-15.435558 V 21.17631 c 0,-8.551301 6.8842604,-15.4355606 15.4355604,-15.4355606 z"/></svg>